<svg xmlns="http://www.w3.org/2000/svg" width="20.868" height="5.41" viewBox="0 0 20.868 5.41">
  <g id="Groupe_324" data-name="Groupe 324" transform="translate(-9.301 60.602)">
    <path id="Tracé_36" data-name="Tracé 36" d="M44.711-57.9a2.705,2.705,0,0,1-2.705,2.705A2.7,2.7,0,0,1,39.3-57.9,2.705,2.705,0,0,1,42.006-60.6,2.706,2.706,0,0,1,44.711-57.9" transform="translate(-22.271)" fill="#564637"/>
    <path id="Tracé_37" data-name="Tracé 37" d="M14.711-57.9a2.705,2.705,0,0,1-2.705,2.705A2.7,2.7,0,0,1,9.3-57.9,2.705,2.705,0,0,1,12.006-60.6,2.706,2.706,0,0,1,14.711-57.9" fill="#564637"/>
    <path id="Tracé_38" data-name="Tracé 38" d="M74.711-57.9a2.705,2.705,0,0,1-2.705,2.705A2.7,2.7,0,0,1,69.3-57.9,2.705,2.705,0,0,1,72.006-60.6,2.706,2.706,0,0,1,74.711-57.9" transform="translate(-44.542)" fill="#564637"/>
  </g>
</svg>
