<svg xmlns="http://www.w3.org/2000/svg" width="44" height="38" viewBox="0 0 44 38">
  <g id="Groupe_342" data-name="Groupe 342" transform="translate(-1)">
    <g id="Groupe_217" data-name="Groupe 217" transform="translate(-171.611 -755)">
      <rect id="Rectangle_1" data-name="Rectangle 1" width="44" height="38" rx="19" transform="translate(172.611 755)" fill="#fff"/>
    </g>
    <g id="Groupe_221" data-name="Groupe 221" transform="translate(-257 -419)">
      <g id="Groupe_220" data-name="Groupe 220" transform="translate(277.568 434.877)">
        <path id="Tracé_33" data-name="Tracé 33" d="M19.409-93.48l-5.84-3.887a.756.756,0,0,0-1.172.625v7.763a.753.753,0,0,0,1.172.625l5.84-3.887a.748.748,0,0,0,0-1.24Z" transform="translate(-12.398 97.493)" fill="#564637"/>
      </g>
      <g id="Groupe_222" data-name="Groupe 222" transform="translate(201.387 468.784) rotate(56)">
        <path id="Tracé_34" data-name="Tracé 34" d="M11.213-94a.734.734,0,0,0-.642.681l-.432,5.213a.739.739,0,0,0,.6.784l5.086.939a.734.734,0,0,0,.577-.094.739.739,0,0,0,.327-.488.741.741,0,0,0-.131-.572.739.739,0,0,0-.506-.294l-3.829-.709A9.77,9.77,0,0,1,19.3-91.514a9.823,9.823,0,0,1,9.823,9.845A9.831,9.831,0,0,1,19.3-71.8a9.839,9.839,0,0,1-9.833-9.864.739.739,0,0,0-.21-.528.735.735,0,0,0-.524-.221.733.733,0,0,0-.523.221A.735.735,0,0,0,8-81.669,11.332,11.332,0,0,0,19.3-70.332,11.325,11.325,0,0,0,30.594-81.669,11.316,11.316,0,0,0,19.3-92.988a11.234,11.234,0,0,0-7.519,2.874L12.04-93.2a.738.738,0,0,0-.2-.569A.731.731,0,0,0,11.286-94a.43.43,0,0,0-.074,0Z" transform="translate(0 0)" fill="#564637" fill-rule="evenodd"/>
      </g>
    </g>
  </g>
</svg>
