<svg id="Groupe_343" data-name="Groupe 343" xmlns="http://www.w3.org/2000/svg" width="44" height="38" viewBox="0 0 44 38">
  <g id="Groupe_215" data-name="Groupe 215" transform="translate(-172.611 -755)">
    <rect id="Rectangle_1" data-name="Rectangle 1" width="44" height="38" rx="19" transform="translate(172.611 755)" fill="#fff"/>
  </g>
  <g id="Groupe_247" data-name="Groupe 247" transform="translate(11 104.028)">
    <path id="Tracé_176" data-name="Tracé 176" d="M16.313-93.7a5.993,5.993,0,0,0-4.763,2.21A5.994,5.994,0,0,0,6.787-93.7C2.727-93.7,0-89.942,0-86.43,0-81.317,9.822-74.464,10.942-73.7a1.083,1.083,0,0,0,.608.188,1.074,1.074,0,0,0,.608-.188c1.12-.764,10.942-7.617,10.942-12.73,0-3.512-2.728-7.273-6.788-7.273Z" transform="translate(0 0)" fill="#564637"/>
  </g>
  <g id="Groupe_248" data-name="Groupe 248" transform="translate(4 101.953)">
    <path id="Tracé_40" data-name="Tracé 40" d="M18.753-86a.4.4,0,0,0-.4.4v3.961H14.4a.4.4,0,0,0-.4.4.4.4,0,0,0,.4.4h3.961v3.961a.4.4,0,0,0,.4.4.4.4,0,0,0,.4-.4v-3.961H23.11a.4.4,0,0,0,.4-.4.4.4,0,0,0-.4-.4H19.149V-85.6A.4.4,0,0,0,18.753-86Z" fill="#fff" stroke="#fff" stroke-width="0.5"/>
  </g>
</svg>
