<svg id="f" xmlns="http://www.w3.org/2000/svg" width="23.536" height="23.536" viewBox="0 0 23.536 23.536">
  <path id="Tracé_3" data-name="Tracé 3" d="M883.511,25.688A11.768,11.768,0,1,0,871.743,13.92a11.768,11.768,0,0,0,11.768,11.768" transform="translate(-871.743 -2.152)" fill="#316ab2"/>
  <path id="Tracé_4" data-name="Tracé 4" d="M896.024,22.043h1.216V20.86a3.155,3.155,0,0,1,.392-1.823,2.164,2.164,0,0,1,1.888-.886,7.641,7.641,0,0,1,2.182.219l-.3,1.8a4.106,4.106,0,0,0-.98-.147c-.473,0-.9.17-.9.643v1.374h1.94l-.135,1.76h-1.805v6.116h-2.28V23.8h-1.216Z" transform="translate(-887.095 -12.267)" fill="#fff"/>
</svg>
