<svg id="t" xmlns="http://www.w3.org/2000/svg" width="23.536" height="23.536" viewBox="0 0 23.536 23.536">
  <g id="Groupe_1" data-name="Groupe 1" transform="translate(0 0)">
    <path id="Tracé_1" data-name="Tracé 1" d="M691.512,25.688A11.768,11.768,0,1,0,679.744,13.92a11.768,11.768,0,0,0,11.768,11.768" transform="translate(-679.744 -2.152)" fill="#4cc3ec"/>
    <path id="Tracé_2" data-name="Tracé 2" d="M707.532,23.819a4.852,4.852,0,0,1-1.389.381,2.423,2.423,0,0,0,1.063-1.338,4.839,4.839,0,0,1-1.536.587,2.422,2.422,0,0,0-4.121,2.205,6.865,6.865,0,0,1-4.984-2.527,2.423,2.423,0,0,0,.749,3.23,2.418,2.418,0,0,1-1.1-.3v.03a2.417,2.417,0,0,0,1.941,2.371,2.339,2.339,0,0,1-.638.086,2.394,2.394,0,0,1-.455-.043,2.418,2.418,0,0,0,2.259,1.679,4.9,4.9,0,0,1-3.581,1,6.878,6.878,0,0,0,10.588-5.795c0-.105,0-.21-.007-.313a4.9,4.9,0,0,0,1.207-1.252" transform="translate(-689.86 -15.134)" fill="#fff"/>
  </g>
</svg>
