<svg xmlns="http://www.w3.org/2000/svg" xmlns:xlink="http://www.w3.org/1999/xlink" width="23.791" height="23.791" viewBox="0 0 23.791 23.791">
  <defs>
    <linearGradient id="linear-gradient" x1="0.5" y1="1" x2="0.5" gradientUnits="objectBoundingBox">
      <stop offset="0" stop-color="#5aad35"/>
      <stop offset="0.5" stop-color="#328f36"/>
      <stop offset="1" stop-color="#5aad35"/>
    </linearGradient>
  </defs>
  <g id="Groupe_264" data-name="Groupe 264" transform="translate(-3.614 1.795)">
    <g id="Groupe_263" data-name="Groupe 263">
      <path id="Tracé_387" data-name="Tracé 387" d="M144.04,123.579a11.9,11.9,0,0,0-11.9,11.9,13.524,13.524,0,0,0,2.318,7.057l-1.451,4.33,4.473-1.459a13,13,0,0,0,6.556,1.968,11.9,11.9,0,1,0,0-23.791Z" transform="translate(-128.531 -125.374)" fill="url(#linear-gradient)"/>
      <path id="Tracé_389" data-name="Tracé 389" d="M209.611,205.47a1.661,1.661,0,0,1,.582-.243h1.116a.634.634,0,0,1,.437.364c.137.312,1.078,2.522,1.148,2.692a.932.932,0,0,1-.04.97c-.293.378-.905,1.083-.905,1.083a.436.436,0,0,0-.032.566,11.327,11.327,0,0,0,1.916,2.361,9.128,9.128,0,0,0,2.741,1.7c.59.194.719-.065.946-.356s.93-1.18.93-1.18a.556.556,0,0,1,.719-.137c.477.218,2.8,1.342,2.8,1.342a.377.377,0,0,1,.3.364,2.537,2.537,0,0,1-.63,2.166,4.233,4.233,0,0,1-3.476,1.091,13.613,13.613,0,0,1-5.472-2.672,17.957,17.957,0,0,1-3.909-4.817,4.662,4.662,0,0,1-.538-2.476A3.918,3.918,0,0,1,209.611,205.47Z" transform="translate(-199.494 -201.535)" fill="#fff"/>
    </g>
  </g>
</svg>
