<svg xmlns="http://www.w3.org/2000/svg" width="20.868" height="5.41"><g data-name="Groupe 324" fill="#564637"><path data-name="Tracé 36" d="M13.139 2.702a2.705 2.705 0 01-2.705 2.705 2.7 2.7 0 01-2.706-2.705 2.705 2.705 0 012.706-2.7 2.706 2.706 0 012.705 2.7"/><path data-name="Tracé 37" d="M5.41 2.702a2.705 2.705 0 01-2.705 2.705A2.7 2.7 0 01-.001 2.702a2.705 2.705 0 012.706-2.7 2.706 2.706 0 012.705 2.7"/><path data-name="Tracé 38" d="M20.868 2.702a2.705 2.705 0 01-2.705 2.705 2.7 2.7 0 01-2.706-2.705 2.705 2.705 0 012.706-2.7 2.706 2.706 0 012.705 2.7"/></g></svg>