<svg data-name="Groupe 343" xmlns="http://www.w3.org/2000/svg" width="44" height="38"><g data-name="Groupe 215"><rect data-name="Rectangle 1" width="44" height="38" rx="19" fill="#fff"/></g><g data-name="Groupe 247"><path data-name="Tracé 176" d="M27.313 10.328a5.993 5.993 0 00-4.763 2.21 5.994 5.994 0 00-4.763-2.21c-4.06 0-6.787 3.758-6.787 7.27 0 5.113 9.822 11.966 10.942 12.73a1.083 1.083 0 00.608.188 1.074 1.074 0 00.608-.188c1.12-.764 10.942-7.617 10.942-12.73 0-3.512-2.728-7.273-6.788-7.273z" fill="#564637"/></g><g data-name="Groupe 248"><path data-name="Tracé 40" d="M22.753 15.953a.4.4 0 00-.4.4v3.961H18.4a.4.4 0 00-.4.4.4.4 0 00.4.4h3.961v3.961a.4.4 0 00.4.4.4.4 0 00.4-.4v-3.961h3.949a.4.4 0 00.4-.4.4.4 0 00-.4-.4h-3.961v-3.961a.4.4 0 00-.396-.4z" fill="#fff" stroke="#fff" stroke-width=".5"/></g></svg>