<svg xmlns="http://www.w3.org/2000/svg" width="44" height="38"><g data-name="Groupe 342"><g data-name="Groupe 217"><rect data-name="Rectangle 1" width="44" height="38" rx="19" fill="#fff"/></g><g data-name="Groupe 221"><g data-name="Groupe 220"><path data-name="Tracé 33" d="M26.579 19.89l-5.84-3.887a.756.756 0 00-1.172.625v7.763a.753.753 0 001.172.625l5.84-3.887a.748.748 0 000-1.24z" fill="#564637"/></g><g data-name="Groupe 222"><path data-name="Tracé 34" d="M27.587 6.516a.734.734 0 00-.924-.152L22.1 8.921a.739.739 0 00-.315.936l2.066 4.742a.734.734 0 00.4.426.739.739 0 00.588-.002.741.741 0 00.4-.429.739.739 0 00-.038-.584l-1.554-3.57a9.77 9.77 0 016.401 4.17 9.823 9.823 0 01-2.669 13.65 9.831 9.831 0 01-13.675-2.626 9.839 9.839 0 012.68-13.667.739.739 0 00.32-.47.735.735 0 00-.11-.558.733.733 0 00-.476-.31.735.735 0 00-.55.119 11.332 11.332 0 00-3.08 15.707 11.325 11.325 0 0015.714 3.024 11.316 11.316 0 003.068-15.693 11.234 11.234 0 00-6.587-4.626l2.703-1.511a.738.738 0 00.36-.484.731.731 0 00-.118-.589.43.43 0 00-.042-.061z" fill="#564637" fill-rule="evenodd"/></g></g></g></svg>