<svg xmlns="http://www.w3.org/2000/svg" width="23.536" height="23.536"><g data-name="Groupe 1"><path data-name="Tracé 1" d="M11.768 23.536A11.768 11.768 0 100 11.768a11.768 11.768 0 0011.768 11.768" fill="#4cc3ec"/><path data-name="Tracé 2" d="M17.672 8.685a4.852 4.852 0 01-1.389.381 2.423 2.423 0 001.063-1.338 4.839 4.839 0 01-1.536.587 2.422 2.422 0 00-4.121 2.205 6.865 6.865 0 01-4.984-2.527 2.423 2.423 0 00.749 3.23 2.418 2.418 0 01-1.1-.3v.03a2.417 2.417 0 001.941 2.371 2.339 2.339 0 01-.638.086 2.394 2.394 0 01-.455-.043 2.418 2.418 0 002.259 1.679 4.9 4.9 0 01-3.581 1 6.878 6.878 0 0010.588-5.795c0-.105 0-.21-.007-.313a4.9 4.9 0 001.207-1.252" fill="#fff"/></g></svg>