<svg xmlns="http://www.w3.org/2000/svg" width="23.791" height="23.791"><defs><linearGradient id="a" x1=".5" y1="1" x2=".5" gradientUnits="objectBoundingBox"><stop offset="0" stop-color="#5aad35"/><stop offset=".5" stop-color="#328f36"/><stop offset="1" stop-color="#5aad35"/></linearGradient></defs><g data-name="Groupe 264"><g data-name="Groupe 263"><path data-name="Tracé 387" d="M144.04 123.579a11.9 11.9 0 00-11.9 11.9 13.524 13.524 0 002.318 7.057l-1.451 4.33 4.473-1.459a13 13 0 006.556 1.968 11.9 11.9 0 100-23.791z" transform="translate(-132.145 -123.579)" fill="url(#a)"/><path data-name="Tracé 389" d="M6.503 5.73a1.661 1.661 0 01.582-.243h1.116a.634.634 0 01.437.364 480.84 480.84 0 011.148 2.692.932.932 0 01-.04.97 35.394 35.394 0 01-.905 1.083.436.436 0 00-.032.566 11.327 11.327 0 001.916 2.361 9.128 9.128 0 002.741 1.7c.59.194.719-.065.946-.356s.93-1.18.93-1.18a.556.556 0 01.719-.137c.477.218 2.8 1.342 2.8 1.342a.377.377 0 01.3.364 2.537 2.537 0 01-.63 2.166 4.233 4.233 0 01-3.476 1.091 13.613 13.613 0 01-5.472-2.672 17.957 17.957 0 01-3.909-4.817 4.662 4.662 0 01-.538-2.476A3.918 3.918 0 016.503 5.73z" fill="#fff"/></g></g></svg>